<?xml version="1.0" encoding="UTF-8" standalone="no"?>
<svg
   xmlns:dc="http://purl.org/dc/elements/1.1/"
   xmlns:cc="http://creativecommons.org/ns#"
   xmlns:rdf="http://www.w3.org/1999/02/22-rdf-syntax-ns#"
   xmlns:svg="http://www.w3.org/2000/svg"
   xmlns="http://www.w3.org/2000/svg"
   viewBox="0 0 400 496"
   height="496"
   width="400"
   id="svg2"
   version="1.1">
  <metadata
     id="metadata8">
    <rdf:RDF>
      <cc:Work
         rdf:about="">
        <dc:format>image/svg+xml</dc:format>
        <dc:type
           rdf:resource="http://purl.org/dc/dcmitype/StillImage" />
        <dc:title></dc:title>
      </cc:Work>
    </rdf:RDF>
  </metadata>
  <defs
     id="defs6" />
  <path
     id="path4487"
     d="M 192.98607,481.0696 C 187.55139,477.7092 139.73663,428.66177 120.94326,407.16951 58.096093,335.29694 24.686041,280.34979 16.998915,236.21953 14.302156,220.73803 15.012235,186.02447 18.345427,170.39212 32.584678,103.61148 78.466934,52.191311 142.98855,30.70476 c 20.0129,-6.664568 33.12626,-8.608511 58.0707,-8.608511 31.55986,0 54.36901,4.99372 81.04819,17.74429 85.986,41.094597 127.05339,142.949551 92.86014,230.310911 -14.23854,36.37847 -48.77161,85.99041 -100.00347,143.67 -22.44104,25.26533 -62.81455,65.95434 -67.34433,67.87061 -5.47155,2.31468 -10.20949,2.11315 -14.63371,-0.62246 z m 26.16703,-55.13051 c 66.8224,-69.03596 115.13266,-134.87531 128.29817,-174.85038 6.83157,-20.74299 8.45924,-52.08045 3.87381,-74.58158 C 339.00918,116.07196 293.2913,70.356915 231.4889,56.678377 218.01147,53.695464 192.77674,53.05469 177.9906,55.319932 112.75167,65.314534 61.661579,114.97802 49.3913,180.32834 c -2.254912,12.00943 -1.941735,39.53924 0.59784,52.55261 6.692272,34.29282 31.162332,75.87427 77.24886,131.26732 22.76025,27.35636 71.202,79.48969 73.86098,79.48969 0.50751,0 8.63186,-7.96449 18.05412,-17.69887 z M 186.15493,246.66312 c -27.82475,-7.38552 -47.26192,-31.87166 -47.16665,-59.41856 0.0381,-11.04438 1.62155,-17.96086 6.27476,-27.40967 7.36702,-14.95946 19.65201,-25.55929 36.35484,-31.36797 7.72166,-2.68533 10.30797,-2.98135 21.8622,-2.50232 9.59686,0.39787 15.00769,1.28426 20.21481,3.31151 15.43238,6.00819 29.98839,20.58846 35.80903,35.86873 3.81443,10.01362 4.66915,27.19463 1.84032,36.99302 -3.36912,11.66977 -9.06246,21.09648 -17.51936,29.0075 -15.95061,14.92102 -37.78434,20.796 -57.66995,15.51776 z m 25.12271,-32.25575 c 11.9759,-4.08059 20.53492,-17.60052 19.29718,-30.48204 -0.74615,-7.76523 -6.16977,-16.63039 -13.19509,-21.56798 -4.98347,-3.50251 -6.11926,-3.76449 -16.32048,-3.76449 -10.20123,0 -11.33701,0.26198 -16.32048,3.76449 -28.50456,20.03376 -6.44929,63.29022 26.53887,52.05002 z"
     style="fill:#000000;stroke-width:1.24202657" />
</svg>
